<svg width="150" height="150" viewBox="0 0 150 150" fill="none" xmlns="http://www.w3.org/2000/svg">
<g clip-path="url(#clip0_5_2)">
<path d="M18.4517 103V47.7273H39.179C43.4252 47.7273 46.9877 48.5189 49.8665 50.1023C52.7633 51.6856 54.9493 53.8627 56.4247 56.6335C57.9181 59.3864 58.6648 62.517 58.6648 66.0256C58.6648 69.5701 57.9181 72.7187 56.4247 75.4716C54.9313 78.2244 52.7273 80.3925 49.8125 81.9759C46.8977 83.5412 43.3082 84.3239 39.044 84.3239H25.3068V76.0923H37.6946C40.1776 76.0923 42.2107 75.6605 43.794 74.7969C45.3774 73.9332 46.5469 72.7457 47.3026 71.2344C48.0762 69.723 48.4631 67.9867 48.4631 66.0256C48.4631 64.0644 48.0762 62.3371 47.3026 60.8438C46.5469 59.3504 45.3684 58.1899 43.767 57.3622C42.1837 56.5166 40.1416 56.0938 37.6406 56.0938H28.4645V103H18.4517ZM66.93 103V61.5455H76.4031V68.4545H76.8349C77.5906 66.0616 78.886 64.2173 80.7212 62.9219C82.5745 61.6084 84.6886 60.9517 87.0636 60.9517C87.6033 60.9517 88.2061 60.9787 88.8718 61.0327C89.5555 61.0687 90.1223 61.1316 90.5721 61.2216V70.2088C90.1583 70.0649 89.5015 69.9389 88.6019 69.831C87.7203 69.705 86.8656 69.642 86.038 69.642C84.2567 69.642 82.6554 70.0289 81.234 70.8026C79.8306 71.5582 78.7241 72.6108 77.9144 73.9602C77.1048 75.3097 76.6999 76.866 76.6999 78.6293V103H66.93ZM113.438 103.81C109.39 103.81 105.881 102.919 102.913 101.138C99.9439 99.3565 97.6409 96.8646 96.0036 93.6619C94.3842 90.4593 93.5746 86.7169 93.5746 82.4347C93.5746 78.1525 94.3842 74.401 96.0036 71.1804C97.6409 67.9598 99.9439 65.4588 102.913 63.6776C105.881 61.8963 109.39 61.0057 113.438 61.0057C117.487 61.0057 120.995 61.8963 123.964 63.6776C126.933 65.4588 129.227 67.9598 130.846 71.1804C132.483 74.401 133.302 78.1525 133.302 82.4347C133.302 86.7169 132.483 90.4593 130.846 93.6619C129.227 96.8646 126.933 99.3565 123.964 101.138C120.995 102.919 117.487 103.81 113.438 103.81ZM113.492 95.983C115.687 95.983 117.522 95.3802 118.998 94.1747C120.473 92.9512 121.571 91.3139 122.29 89.2628C123.028 87.2116 123.397 84.9266 123.397 82.4077C123.397 79.8707 123.028 77.5767 122.29 75.5256C121.571 73.4564 120.473 71.8101 118.998 70.5866C117.522 69.3632 115.687 68.7514 113.492 68.7514C111.243 68.7514 109.372 69.3632 107.879 70.5866C106.403 71.8101 105.297 73.4564 104.559 75.5256C103.839 77.5767 103.479 79.8707 103.479 82.4077C103.479 84.9266 103.839 87.2116 104.559 89.2628C105.297 91.3139 106.403 92.9512 107.879 94.1747C109.372 95.3802 111.243 95.983 113.492 95.983Z" fill="url(#paint0_linear_5_2)"/>
</g>
<defs>
<linearGradient id="paint0_linear_5_2" x1="13" y1="75" x2="137" y2="75" gradientUnits="userSpaceOnUse">
<stop stop-color="#1677FF"/>
<stop offset="1" stop-color="#13C2C2"/>
</linearGradient>
<clipPath id="clip0_5_2">
<rect width="124" height="92" fill="white" transform="translate(13 29)"/>
</clipPath>
</defs>
</svg>
